<?xml version="1.0" encoding="UTF-8" standalone="no"?>
<svg
   xmlns:dc="http://purl.org/dc/elements/1.1/"
   xmlns:cc="http://creativecommons.org/ns#"
   xmlns:rdf="http://www.w3.org/1999/02/22-rdf-syntax-ns#"
   xmlns:svg="http://www.w3.org/2000/svg"
   xmlns="http://www.w3.org/2000/svg"
   id="svg26"
   version="1.1"
   viewBox="0 0 37 41"
   height="41px"
   width="37px">
  <metadata
     id="metadata30">
    <rdf:RDF>
      <cc:Work
         rdf:about="">
        <dc:format>image/svg+xml</dc:format>
        <dc:type
           rdf:resource="http://purl.org/dc/dcmitype/StillImage" />
      </cc:Work>
    </rdf:RDF>
  </metadata>
  <!-- Generator: Sketch 59.1 (86144) - https://sketch.com -->
  <title
     id="title2">dropletinboxicon</title>
  <desc
     id="desc4">Created with Sketch.</desc>
  <defs
     id="defs11">
    <linearGradient
       id="linearGradient-1"
       y2="96.438%"
       x2="50.055%"
       y1="2.475%"
       x1="50.055%">
      <stop
         id="stop6"
         offset="0%"
         stop-opacity="0.3"
         stop-color="#0069FF" />
      <stop
         id="stop8"
         offset="100%"
         stop-opacity="0"
         stop-color="#0069FF" />
    </linearGradient>
  </defs>
  <g
     fill-rule="evenodd"
     fill="none"
     stroke-width="1"
     stroke="none"
     id="Page-1">
    <g
       transform="translate(1.000000, 1.000000)"
       id="dropletinboxicon">
      <polygon
         points="0 10.121 0 28.229 17.271 38.257 34.45 28.229 34.45 10.121 17.271 0.186"
         opacity="0.2"
         stroke-width="2"
         stroke="#0069FF"
         id="Path" />
      <polygon
         points="0 22.936 0 28.229 17.271 38.257 34.45 28.229 34.45 22.936 17.271 13"
         fill-rule="nonzero"
         fill="url(#linearGradient-1)"
         id="polygon14" />
      <polygon
         points="0 22.936 0 28.229 17.271 38.257 34.45 28.229 34.45 22.936 17.271 13"
         stroke-width="2"
         stroke="#0069FF"
         id="polygon16" />
      <polyline
         points="0 22.936 17.271 32.871 34.45 22.936"
         stroke-width="2"
         stroke="#0069FF"
         id="polyline18" />
      <path
         fill-rule="nonzero"
         fill="#FFFFFF"
         stroke-width="2"
         stroke="#120078"
         id="path20"
         d="M17.2714,6.7786 C17.2714,6.7786 9.5643,12.4429 9.5643,18.2 C9.5643,22.4714 13,25.9071 17.2714,25.9071 C21.5429,25.9071 24.9786,22.4714 24.9786,18.2 C24.9786,12.6286 17.2714,6.7786 17.2714,6.7786 Z" />
      <polyline
         points="0 10.4 17.271 20.336 34.45 10.4"
         opacity="0.2"
         stroke-width="2"
         stroke="#0069FF"
         id="polyline22" />
    </g>
  </g>
</svg>
